<svg width="667" height="122" viewBox="0 0 667 122" fill="none" xmlns="http://www.w3.org/2000/svg">
<g clip-path="url(#clip0_55_82)">
<path d="M300 0.933296C233.6 3.3333 175.334 14.9333 136.934 33.2C115.067 43.7333 93.6002 60.4 84.0002 74.6666C81.8668 77.7333 81.7335 77.6 65.3335 60.1333C41.4668 34.8 44.6668 33.3333 20.5335 80.6666C10.0002 101.2 1.3335 118.4 1.3335 118.933C1.3335 119.6 5.3335 120 10.4002 120H19.3335L30.6668 98C36.8002 85.8666 42.2668 76 42.6668 76C43.0668 76 49.6002 86 57.2002 98.1333L70.9335 120.133L75.7335 119.733C80.4002 119.333 80.8002 118.933 88.6668 104C105.867 71.0666 125.6 53.2 159.067 40.1333C230.934 12.2666 344.934 7.46663 480.667 26.8C512.934 31.3333 567.067 40.9333 583.333 44.8C591.2 46.6666 579.6 42.1333 559.734 35.4666C487.067 10.9333 386.667 -2.40004 300 0.933296Z" fill="#0059E1"/>
<path d="M310.667 72.9333C302.534 88.9333 294.534 103.067 293.067 104.267C290.934 106.133 287.867 106.667 278.134 106.667H265.867L262.267 114L258.667 121.333H277.734C299.2 121.333 304.667 119.733 311.2 112C313.867 108.8 339.334 60.5332 346.4 44.9333C346.667 44.3999 342.134 43.9999 336.267 43.9999H325.6L310.667 72.9333Z" fill="#0059E1"/>
<path d="M127.333 67.8667C125.067 69.2 121.467 72.2667 119.467 74.8C114.933 80.1333 100 109.867 100 113.467C100 114.933 101.2 117.2 102.667 118.667C105.2 121.2 107.067 121.333 167.333 121.333C239.2 121.333 237.867 121.6 252 108.4C258.533 102.4 261.467 98.1333 268.667 84C273.467 74.5333 277.333 66.5333 277.333 66C277.333 65.6 272.933 65.3333 267.733 65.6L258 66L248 85.2C238.8 102.933 234.667 108.533 232.667 106.4C232.133 106 236.133 96.9333 241.6 86.4C246.933 76 251.6 66.9333 251.733 66.4C252 65.7333 247.733 65.3333 242.4 65.3333H232.533L222.267 85.2C212.8 103.333 210.4 106.667 206.4 106.667C205.733 106.667 210 97.3333 215.867 86L226.667 65.3333H216.667H206.8L196.4 85.7333L186 106L156.8 106.4C140.4 106.533 126.933 106.133 126.267 105.467C125.6 104.8 126.133 101.867 127.733 98.1333L130.533 92H156.4H182.267L186.667 82.5333C190.133 74.9333 190.8 72.2667 189.867 69.4667L188.667 66L160 65.6C134 65.3333 130.933 65.6 127.333 67.8667ZM163.333 83.3333V87.3333L148.4 87.7333C139.6 87.8667 133.333 87.6 133.333 86.8C133.333 86.1333 135.2 84 137.467 82.1333C141.333 78.8 142.4 78.5333 152.533 78.9333L163.333 79.3333V83.3333Z" fill="#0059E1"/>
<path d="M347.733 69.7332C343.2 73.1999 340.133 77.5999 333.067 91.3333C323.333 110.133 321.733 117.333 326.533 120C328.133 120.8 341.2 121.333 359.6 121.333H390.133L393.333 114.933C395.2 111.467 396.8 108.267 397.067 107.6C397.333 107.067 386.667 106.667 373.467 106.667C350.4 106.667 349.333 106.533 349.333 104C349.333 102.667 350.4 99.3333 351.6 96.6666L353.867 91.9999H379.333H404.8L409.067 83.3332C413.6 74.1333 414.4 69.5999 411.733 66.9333C410.533 65.7332 402.133 65.3332 381.867 65.3332H353.6L347.733 69.7332ZM386.533 80.5332C387.733 81.9999 387.867 83.1999 386.667 85.1999C385.333 87.7332 384 87.9999 370.533 87.9999C356.4 87.9999 356 87.8666 357.333 85.4666C360 80.2666 364.133 78.6666 374.8 78.6666C382 78.6666 385.467 79.1999 386.533 80.5332Z" fill="#0059E1"/>
<path d="M424.667 71.0666C422.8 74.2666 421.333 77.3332 421.333 77.7332C421.333 78.2666 431.467 78.6666 443.867 78.6666C462.533 78.6666 466.667 79.0666 468 80.6666C469.2 82.1333 469.333 83.1999 468.4 84.1333C467.467 85.0666 416.133 95.9999 412.533 95.9999C412.133 95.9999 410.133 99.7333 408 104.267C403.6 113.733 403.867 118.133 408.933 120.133C410.667 120.8 432.533 121.333 457.333 121.333H502.533L512.533 101.6C520 86.9333 523.467 81.3332 526 80.2666C527.867 79.3332 534 78.6666 539.467 78.6666C547.467 78.6666 549.6 79.0666 550.267 80.7999C550.8 82.2666 547.333 90.5333 541.6 102.133L532 121.333H577.733C605.467 121.333 625.333 120.8 628.4 119.867C631.2 119.2 635.467 116.667 638.133 114.4C647.6 106.133 652.667 89.8666 646.8 86.6666C645.333 85.9999 636.667 85.3333 627.467 85.3333C613.6 85.3333 610.667 84.9333 610.667 83.3332C610.667 79.5999 615.867 78.6666 637.6 78.6666H659.467L662.4 72.6666C664 69.3332 665.333 66.2666 665.333 65.8666C665.333 65.4666 650.8 65.3332 632.933 65.5999C601.067 65.9999 600.4 65.9999 595.733 69.1999C589.2 73.7332 582.667 83.8666 581.733 90.6666C580.533 99.1999 582.4 99.9999 602.933 99.9999C616 99.9999 620 100.4 620 101.733C620 106.133 616.933 106.667 589.067 106.667H561.467L569.6 89.8666C577.467 73.8666 577.733 72.9333 575.867 69.5999L573.867 65.9999L548 65.5999C532.4 65.3332 520 65.7332 517.2 66.6666C510.267 68.6666 503.733 76.5332 495.733 92.6666C488.933 106.133 488.533 106.667 484.4 106.667C482 106.667 480 106.4 480 106C480 105.6 483.333 98.6666 487.333 90.6666C494.667 76.1333 496.133 69.9999 493.067 66.9333C491.867 65.7332 482.667 65.3332 459.733 65.3332H428.133L424.667 71.0666ZM464 92.6666C464 94.3999 458.667 103.6 456.933 105.2C453.867 107.6 431.467 106.667 430.933 104C430.133 99.7333 434 97.3333 446 94.7999C458.533 92.1333 464 91.4666 464 92.6666Z" fill="#0059E1"/>
</g>
<defs>
<clipPath id="clip0_55_82">
<rect width="666.667" height="121.333" fill="white"/>
</clipPath>
</defs>
</svg>
